# xmcd
#
# Track frame offsets: 
#        150
#        19066
#        35257
#        49664
#        63670
#        77854
#        94276
#        109332
#        123759
#        137064
#        153045
#        169057
#        182620
#        197360
#        214617
#        229526
#        245440
#        261524
#
# Disc length: 3708 seconds
#
# Revision: 0
# Processed by: cddbd v1.4PL0 Copyright (c) Steve Scherf et al.
# Submitted via: ExactAudioCopy v0.95a4
#
DISCID=ed0e7a12
DTITLE=陈小云 - 爱情的骗子我问你
DYEAR=2003
DGENRE=Pop
TTITLE0=爱情的骗子我问你
TTITLE1=免失志
TTITLE2=恰想也是你一人
TTITLE3=望你早归
TTITLE4=爱情的力量
TTITLE5=再会干一杯
TTITLE6=难忘凤凰桥
TTITLE7=何必为着伊
TTITLE8=你是七仔魁
TTITLE9=爱情十字路
TTITLE10=十一哥
TTITLE11=劝你一句话
TTITLE12=歌手
TTITLE13=对你有够赞
TTITLE14=心内事无人知
TTITLE15=听我讲一句话
TTITLE16=感情债上歹行
TTITLE17=天若有情也会老
EXTD=
EXTT0=
EXTT1=
EXTT2=
EXTT3=
EXTT4=
EXTT5=
EXTT6=
EXTT7=
EXTT8=
EXTT9=
EXTT10=
EXTT11=
EXTT12=
EXTT13=
EXTT14=
EXTT15=
EXTT16=
EXTT17=
PLAYORDER=
